<svg xmlns="http://www.w3.org/2000/svg" width="1600" height="1000" viewBox="0 0 1600 1000">
  <defs>
    <style>
      .bg { fill: #f7fbff; }
      .title { fill: #102033; font: 700 48px -apple-system, BlinkMacSystemFont, "Segoe UI", sans-serif; }
      .subtitle { fill: #4f6277; font: 400 24px -apple-system, BlinkMacSystemFont, "Segoe UI", sans-serif; }
      .section { fill: #4f6277; font: 700 20px -apple-system, BlinkMacSystemFont, "Segoe UI", sans-serif; letter-spacing: 1px; }
      .box { fill: #ffffff; stroke: #d7e2ee; stroke-width: 3; rx: 24; }
      .primary { fill: #eef5ff; stroke: #2563eb; }
      .cloud { fill: #eff6ff; stroke: #0ea5e9; }
      .data { fill: #f3fff8; stroke: #16a34a; }
      .voice { fill: #fff7ed; stroke: #f97316; }
      .label { fill: #13293d; font: 700 27px -apple-system, BlinkMacSystemFont, "Segoe UI", sans-serif; }
      .small { fill: #516579; font: 400 20px -apple-system, BlinkMacSystemFont, "Segoe UI", sans-serif; }
      .tiny { fill: #516579; font: 600 17px -apple-system, BlinkMacSystemFont, "Segoe UI", sans-serif; }
      .arrow { stroke: #2563eb; stroke-width: 5; fill: none; marker-end: url(#arrowhead); }
      .arrow2 { stroke: #0ea5e9; stroke-width: 5; fill: none; marker-end: url(#arrowhead2); }
      .arrow3 { stroke: #16a34a; stroke-width: 5; fill: none; marker-end: url(#arrowhead3); }
      .dash { stroke-dasharray: 12 10; }
    </style>
    <marker id="arrowhead" markerWidth="14" markerHeight="14" refX="12" refY="7" orient="auto">
      <path d="M 0 0 L 14 7 L 0 14 z" fill="#2563eb"/>
    </marker>
    <marker id="arrowhead2" markerWidth="14" markerHeight="14" refX="12" refY="7" orient="auto">
      <path d="M 0 0 L 14 7 L 0 14 z" fill="#0ea5e9"/>
    </marker>
    <marker id="arrowhead3" markerWidth="14" markerHeight="14" refX="12" refY="7" orient="auto">
      <path d="M 0 0 L 14 7 L 0 14 z" fill="#16a34a"/>
    </marker>
  </defs>

  <rect class="bg" width="1600" height="1000"/>

  <text x="80" y="85" class="title">MedsBuddy Architecture</text>
  <text x="80" y="125" class="subtitle">AI Patient Advocate using Qwen Cloud, Alibaba Cloud ECS, visit memory, and voice services</text>

  <text x="95" y="190" class="section">USERS</text>
  <text x="510" y="190" class="section">FRONTEND</text>
  <text x="870" y="190" class="section">ALIBABA CLOUD BACKEND</text>
  <text x="1240" y="190" class="section">AI + DATA</text>

  <rect x="80" y="230" width="270" height="135" class="box"/>
  <text x="115" y="285" class="label">Patient</text>
  <text x="115" y="320" class="small">Talk page, pre-visit</text>
  <text x="115" y="348" class="small">approval, symptoms</text>

  <rect x="80" y="635" width="270" height="135" class="box"/>
  <text x="115" y="690" class="label">Doctor</text>
  <text x="115" y="725" class="small">Asks questions and</text>
  <text x="115" y="753" class="small">gives care plan</text>

  <rect x="455" y="280" width="320" height="210" class="box primary"/>
  <text x="495" y="345" class="label">React Frontend</text>
  <text x="495" y="382" class="small">TanStack Start + Vite</text>
  <text x="495" y="418" class="small">Talk page, doctor visit UI,</text>
  <text x="495" y="446" class="small">architecture page, summaries</text>

  <rect x="455" y="565" width="320" height="150" class="box voice"/>
  <text x="495" y="625" class="label">Voice Layer</text>
  <text x="495" y="662" class="small">Speech STT + ElevenLabs TTS</text>
  <text x="495" y="690" class="small">Corrected transcripts + voice output</text>

  <rect x="870" y="280" width="335" height="245" class="box primary"/>
  <text x="910" y="345" class="label">Alibaba Cloud ECS</text>
  <text x="910" y="382" class="small">FastAPI backend APIs</text>
  <text x="910" y="418" class="small">Agent router, care-plan gaps,</text>
  <text x="910" y="446" class="small">doctor handoff, summaries</text>
  <text x="910" y="482" class="tiny">Proof endpoint: /api/qwen-proof</text>

  <rect x="1260" y="230" width="280" height="170" class="box cloud"/>
  <text x="1295" y="292" class="label">Qwen Cloud</text>
  <text x="1295" y="329" class="small">Alibaba Cloud</text>
  <text x="1295" y="357" class="small">Model Studio</text>

  <rect x="1260" y="490" width="280" height="170" class="box data"/>
  <text x="1295" y="552" class="label">Visit Memory DB</text>
  <text x="1295" y="589" class="small">SQLite on ECS</text>
  <text x="1295" y="617" class="small">Approved summaries, meds,</text>
  <text x="1295" y="645" class="small">allergies, follow-up</text>

  <rect x="870" y="640" width="335" height="150" class="box"/>
  <text x="910" y="700" class="label">Structured Output</text>
  <text x="910" y="737" class="small">Patient-friendly summary,</text>
  <text x="910" y="765" class="small">care plan, medication updates</text>

  <path d="M 350 300 C 390 300 410 350 455 350" class="arrow"/>
  <text x="370" y="286" class="tiny">Patient context</text>

  <path d="M 350 690 C 405 690 410 440 455 430" class="arrow"/>
  <text x="365" y="664" class="tiny">Doctor visit audio</text>

  <path d="M 615 565 L 615 505" class="arrow2"/>
  <text x="635" y="540" class="tiny">Transcript + speech</text>

  <path d="M 775 385 L 870 385" class="arrow"/>
  <text x="790" y="365" class="tiny">API requests</text>

  <path d="M 1205 370 L 1260 315" class="arrow2"/>
  <text x="1205" y="325" class="tiny">Reasoning</text>
  <text x="1205" y="348" class="tiny">and agents</text>

  <path d="M 1260 365 C 1230 405 1235 440 1205 455" class="arrow2"/>
  <text x="1280" y="435" class="tiny">JSON result</text>

  <path d="M 1205 500 L 1260 565" class="arrow3"/>
  <text x="1210" y="548" class="tiny">Save/retrieve</text>

  <path d="M 1260 620 C 1225 670 1240 700 1205 715" class="arrow3"/>
  <text x="1265" y="705" class="tiny">Memory context</text>

  <path d="M 1038 525 L 1038 640" class="arrow"/>
  <text x="1058" y="593" class="tiny">Generate visit output</text>

  <path d="M 870 735 C 795 735 795 475 775 450" class="arrow dash"/>
  <text x="695" y="748" class="tiny">Summary back to app</text>

  <path d="M 455 690 C 410 705 395 720 350 720" class="arrow2 dash"/>
  <text x="365" y="755" class="tiny">Spoken response</text>

  <rect x="80" y="835" width="1460" height="98" rx="18" fill="#ffffff" stroke="#d7e2ee" stroke-width="2"/>
  <text x="115" y="878" class="small">
    Flow: Patient approves context → Frontend sends transcript to Alibaba Cloud ECS → ECS calls Qwen Cloud for AI reasoning
  </text>
  <text x="115" y="908" class="small">
    → Visit memory is stored and retrieved → MedsBuddy answers questions, requests clarification when needed, and generates a structured visit summary.
  </text>
</svg>
